<?xml version="1.0" standalone="no"?>
<!DOCTYPE svg PUBLIC "-//W3C//DTD SVG 20010904//EN"
 "http://www.w3.org/TR/2001/REC-SVG-20010904/DTD/svg10.dtd">
<svg version="1.0" xmlns="http://www.w3.org/2000/svg"
 width="225.000000pt" height="225.000000pt" viewBox="0 0 225.000000 225.000000"
 preserveAspectRatio="xMidYMid meet">

<g transform="translate(0.000000,225.000000) scale(0.100000,-0.100000)"
fill="#000000" stroke="none">
<path d="M450 1920 l0 -60 665 0 665 0 0 60 0 60 -665 0 -665 0 0 -60z"/>
<path d="M453 1818 c-14 -17 -160 -356 -168 -390 -18 -70 45 -148 119 -148 36
0 45 -4 54 -26 16 -34 92 -68 135 -59 18 4 47 18 65 32 17 13 32 20 32 14 0
-5 20 -19 44 -31 53 -25 103 -20 145 16 28 23 29 23 46 4 42 -46 122 -48 174
-4 28 23 28 23 46 4 42 -46 138 -46 180 0 17 19 18 19 46 -4 41 -35 90 -41
144 -17 25 11 45 25 45 31 0 6 15 0 33 -13 17 -14 46 -28 64 -32 43 -9 119 25
135 59 9 22 18 26 54 26 74 0 137 78 119 148 -8 34 -154 373 -168 390 -7 9
-154 12 -672 12 -518 0 -665 -3 -672 -12z"/>
<path d="M360 847 c0 -300 3 -406 12 -415 17 -17 1499 -17 1516 0 9 9 12 115
12 415 l0 403 -40 0 c-28 0 -42 -5 -50 -19 -31 -58 -154 -82 -215 -41 -27 18
-31 18 -48 3 -28 -26 -129 -30 -169 -6 -32 19 -34 19 -63 1 -40 -24 -120 -24
-160 0 -29 18 -31 18 -60 0 -40 -24 -120 -24 -160 0 -29 18 -31 18 -63 -1 -40
-24 -143 -21 -169 5 -14 15 -18 15 -47 -3 -61 -37 -177 -17 -213 37 -11 18
-25 24 -49 24 l-34 0 0 -403z m400 -7 l0 -70 -70 0 -70 0 0 63 c0 35 3 67 7
70 3 4 35 7 70 7 l63 0 0 -70z m168 -2 l3 -68 -71 0 -70 0 0 70 0 71 68 -3 67
-3 3 -67z m727 -148 l0 -215 -150 0 -150 0 -5 205 c-3 117 -2 210 4 218 7 9
45 12 155 10 l146 -3 0 -215z m-895 -20 l0 -71 -67 3 -68 3 -3 68 -3 67 71 0
70 0 0 -70z m168 3 l-3 -68 -67 -3 -68 -3 0 71 0 70 70 0 71 0 -3 -67z"/>
<path d="M1414 706 c-9 -24 4 -48 23 -44 12 2 18 12 18 28 0 29 -32 41 -41 16z"/>
</g>
</svg>
